<?xml version="1.0" encoding="UTF-8" standalone="no"?>
<!-- Created with Inkscape (http://www.inkscape.org/) -->

<svg
   version="1.1"
   id="svg986"
   width="800"
   height="800"
   viewBox="0 0 800 800"
   sodipodi:docname="champignons-publicdomainvectors.org.svg"
   inkscape:version="1.2 (dc2aedaf03, 2022-05-15)"
   xmlns:inkscape="http://www.inkscape.org/namespaces/inkscape"
   xmlns:sodipodi="http://sodipodi.sourceforge.net/DTD/sodipodi-0.dtd"
   xmlns="http://www.w3.org/2000/svg"
   xmlns:svg="http://www.w3.org/2000/svg">
  <defs
     id="defs990">
    <clipPath
       clipPathUnits="userSpaceOnUse"
       id="clipPath1004">
      <path
         d="M 0,600 H 600 V 0 H 0 Z"
         id="path1002" />
    </clipPath>
  </defs>
  <sodipodi:namedview
     id="namedview988"
     pagecolor="#ffffff"
     bordercolor="#000000"
     borderopacity="0.25"
     inkscape:showpageshadow="2"
     inkscape:pageopacity="0.0"
     inkscape:pagecheckerboard="0"
     inkscape:deskcolor="#d1d1d1"
     showgrid="false"
     inkscape:zoom="1.04625"
     inkscape:cx="399.5221"
     inkscape:cy="400.4779"
     inkscape:window-width="1920"
     inkscape:window-height="1017"
     inkscape:window-x="-8"
     inkscape:window-y="-8"
     inkscape:window-maximized="1"
     inkscape:current-layer="g994">
    <inkscape:page
       x="0"
       y="0"
       id="page992"
       width="800"
       height="800" />
  </sodipodi:namedview>
  <g
     id="g994"
     inkscape:groupmode="layer"
     inkscape:label="Page 1"
     transform="matrix(1.3333333,0,0,-1.3333333,0,800)">
    <path
       d="M 0,0 H 599.105 V 600 H 0 Z"
       style="fill:#463d3b;fill-opacity:1;fill-rule:nonzero;stroke:none"
       id="path996" />
    <g
       id="g998">
      <g
         id="g1000"
         clip-path="url(#clipPath1004)">
        <g
           id="g1006"
           transform="translate(357.7295,309.3389)">
          <path
             d="m 0,0 c 65.832,0 119.526,38.406 119.526,85.495 0,47.088 -53.694,85.495 -119.526,85.495 -65.832,0 -119.526,-38.407 -119.526,-85.495 C -119.526,38.406 -65.832,0 0,0"
             style="fill:#d7c9c4;fill-opacity:1;fill-rule:evenodd;stroke:none"
             id="path1008" />
        </g>
        <g
           id="g1010"
           transform="translate(357.7285,480.3286)">
          <path
             d="m 0,0 c 2.144,0 4.273,-0.042 6.387,-0.122 -64.544,-18.003 -61.86,-77.918 -28.049,-86.374 l 5.998,-83.761 c -58.61,5.487 -103.863,41.343 -103.863,84.762 C -119.527,-38.277 -66.013,0 0,0"
             style="fill:#eae2df;fill-opacity:1;fill-rule:evenodd;stroke:none"
             id="path1012" />
        </g>
        <g
           id="g1014"
           transform="translate(357.7295,318.4688)">
          <path
             d="M 0,0 C 39.088,0 70.969,17.339 70.969,38.598 70.969,59.857 39.088,77.195 0,77.195 -39.089,77.195 -70.969,59.857 -70.969,38.598 -70.969,17.339 -39.089,0 0,0"
             style="fill:#b2a29e;fill-opacity:1;fill-rule:evenodd;stroke:none"
             id="path1016" />
        </g>
        <g
           id="g1018"
           transform="translate(357.7285,395.6641)">
          <path
             d="m 0,0 c 39.195,0 70.97,-17.281 70.97,-38.598 0,-21.317 -31.775,-38.597 -70.97,-38.597 -8.78,0 -17.187,0.87 -24.95,2.456 -9.122,9.674 -14.678,22.492 -14.678,36.552 0,13.575 5.177,25.989 13.744,35.538 C -17.864,-0.94 -9.133,0 0,0"
             style="fill:#a2908c;fill-opacity:1;fill-rule:evenodd;stroke:none"
             id="path1020" />
        </g>
        <g
           id="g1022"
           transform="translate(397.8633,365.9277)">
          <path
             d="m 0,0 c 4.576,-75.095 -30.49,-150.429 -105.712,-174.703 l -29.797,92.967 c 30.94,9.984 56.714,49.214 54.954,78.052 C -90.121,27.62 -1.229,29.966 0,0"
             style="fill:#e5d9d5;fill-opacity:1;fill-rule:evenodd;stroke:none"
             id="path1024" />
        </g>
        <g
           id="g1026"
           transform="translate(397.8633,365.9277)">
          <path
             d="m 0,0 c 4.576,-75.095 -30.49,-150.429 -105.712,-174.703 l -16.094,50.208 11.867,33.588 c 6.237,-1.78 11.804,-4.231 16.838,-7.306 10.185,-6.222 21.327,-7.689 32.777,-4.32 11.449,3.369 20.018,10.64 25.209,21.386 11.08,22.934 17.178,51.129 12.933,84.63 C -23.649,15.065 -35,20.285 -55.337,20.008 -31.824,24.078 -0.725,17.64 0,0"
             style="fill:#d4c6c0;fill-opacity:1;fill-rule:evenodd;stroke:none"
             id="path1028" />
        </g>
        <g
           id="g1030"
           transform="translate(267.5181,285.0586)">
          <path
             d="m 0,0 c 16.073,0 34.146,-20.997 40.369,-46.895 6.222,-25.902 -1.761,-46.896 -17.836,-46.896 -16.071,0 -34.145,20.994 -40.368,46.896 C -24.057,-20.997 -16.073,0 0,0"
             style="fill:#b2a29e;fill-opacity:1;fill-rule:evenodd;stroke:none"
             id="path1032" />
        </g>
        <g
           id="g1034"
           transform="translate(516.8799,278.6768)">
          <path
             d="m 0,0 c 30.354,-22.8 41.74,-58.883 25.433,-80.595 -16.308,-21.71 -54.134,-20.829 -84.487,1.971 -30.354,22.798 -41.74,58.883 -25.432,80.594 C -68.179,23.68 -30.353,22.799 0,0"
             style="fill:#d7c9c4;fill-opacity:1;fill-rule:evenodd;stroke:none"
             id="path1036" />
        </g>
        <g
           id="g1038"
           transform="translate(516.8799,278.6768)">
          <path
             d="M 0,0 C 0.986,-0.74 1.951,-1.497 2.896,-2.263 -33,11.751 -52.459,-16.726 -39.834,-32.291 L -66.005,-72.878 C -91.06,-50.111 -99.482,-17.995 -84.486,1.97 -68.179,23.68 -30.353,22.799 0,0"
             style="fill:#eae2df;fill-opacity:1;fill-rule:evenodd;stroke:none"
             id="path1040" />
        </g>
        <g
           id="g1042"
           transform="translate(487.6396,239.7461)">
          <path
             d="m 0,0 c 18.023,-13.536 26.664,-32.457 19.302,-42.259 -7.363,-9.802 -27.941,-6.773 -45.963,6.764 C -44.685,-21.959 -53.325,-3.038 -45.964,6.764 -38.6,16.566 -18.022,13.537 0,0"
             style="fill:#b2a29e;fill-opacity:1;fill-rule:evenodd;stroke:none"
             id="path1044" />
        </g>
        <g
           id="g1046"
           transform="translate(487.6396,239.7461)">
          <path
             d="m 0,0 c 18.023,-13.536 26.664,-32.457 19.302,-42.259 -7.363,-9.802 -27.941,-6.773 -45.963,6.764 -4.038,3.032 -7.603,6.336 -10.625,9.746 -0.853,7.601 1.019,15.412 5.875,21.878 4.688,6.241 11.358,10.162 18.594,11.594 C -8.538,5.738 -4.2,3.153 0,0"
             style="fill:#a2908c;fill-opacity:1;fill-rule:evenodd;stroke:none"
             id="path1048" />
        </g>
        <g
           id="g1050"
           transform="translate(495.8232,212.2109)">
          <path
             d="M 0,0 C -23.831,-36.109 -65.974,-58.638 -108.946,-43.82 L -90.538,9.219 C -72.862,3.123 -47.463,12.262 -38.31,26.128 -31.899,43.826 9.786,14.204 0,0"
             style="fill:#e5d9d5;fill-opacity:1;fill-rule:evenodd;stroke:none"
             id="path1052" />
        </g>
        <g
           id="g1054"
           transform="translate(495.8232,212.2109)">
          <path
             d="m 0,0 c -23.831,-36.109 -65.974,-58.638 -108.946,-43.82 l 9.942,28.644 17.058,11.347 c 2.252,-2.972 3.965,-6.023 5.217,-9.176 2.535,-6.378 7.151,-10.899 13.579,-13.306 6.429,-2.406 12.88,-2.022 18.978,1.127 13.016,6.718 25.557,17.578 35.176,34.446 3.325,5.834 -0.09,12.155 -9.538,19.05 C -6.316,22.064 5.761,8.362 0,0"
             style="fill:#d4c6c0;fill-opacity:1;fill-rule:evenodd;stroke:none"
             id="path1056" />
        </g>
        <g
           id="g1058"
           transform="translate(407.959,220.0449)">
          <path
             d="m 0,0 c 7.391,-5.551 8.449,-21.447 2.366,-35.505 -6.084,-14.06 -17.008,-20.956 -24.397,-15.403 -7.392,5.55 -8.451,21.447 -2.367,35.506 C -18.314,-1.344 -7.39,5.552 0,0"
             style="fill:#b2a29e;fill-opacity:1;fill-rule:evenodd;stroke:none"
             id="path1060" />
        </g>
        <g
           id="g1062"
           transform="translate(92.562,325.5938)">
          <path
             d="m 0,0 c 39.705,28.233 88.264,28.098 108.459,-0.302 20.195,-28.401 4.377,-74.311 -35.329,-102.546 -39.704,-28.233 -88.263,-28.098 -108.458,0.302 C -55.522,-74.145 -39.706,-28.234 0,0"
             style="fill:#d7c9c4;fill-opacity:1;fill-rule:evenodd;stroke:none"
             id="path1064" />
        </g>
        <g
           id="g1066"
           transform="translate(92.562,325.5938)">
          <path
             d="M 0,0 C 1.289,0.916 2.587,1.801 3.894,2.659 -27.229,-35.776 0.012,-70.665 23.965,-61.292 l 39.431,-47.815 c -37.6,-21.766 -80.154,-19.553 -98.724,6.561 C -55.522,-74.145 -39.706,-28.234 0,0"
             style="fill:#eae2df;fill-opacity:1;fill-rule:evenodd;stroke:none"
             id="path1068" />
        </g>
        <g
           id="g1070"
           transform="translate(128.7725,274.668)">
          <path
             d="M 0,0 C 23.575,16.765 50.078,19.961 59.195,7.138 68.312,-5.684 56.591,-29.666 33.016,-46.431 9.44,-63.193 -17.062,-66.389 -26.179,-53.567 -35.296,-40.747 -23.575,-16.763 0,0"
             style="fill:#b2a29e;fill-opacity:1;fill-rule:evenodd;stroke:none"
             id="path1072" />
        </g>
        <g
           id="g1074"
           transform="translate(128.7725,274.668)">
          <path
             d="m 0,0 c 23.575,16.765 50.078,19.961 59.195,7.138 9.117,-12.822 -2.604,-36.804 -26.179,-53.569 -5.283,-3.754 -10.711,-6.828 -16.058,-9.193 -9.624,1.917 -18.449,7.251 -24.462,15.708 -5.806,8.164 -8.001,17.846 -6.933,27.254 C -10.344,-8.204 -5.494,-3.905 0,0"
             style="fill:#a2908c;fill-opacity:1;fill-rule:evenodd;stroke:none"
             id="path1076" />
        </g>
        <g
           id="g1078"
           transform="translate(165.6304,273.9482)">
          <path
             d="m 0,0 c 34.869,-43.21 45.999,-103.52 11.135,-150.295 l -57.682,43.176 c 14.34,19.238 13.063,53.857 -0.329,70.452 C -66.018,-21.932 -13.556,17.498 0,0"
             style="fill:#e5d9d5;fill-opacity:1;fill-rule:evenodd;stroke:none"
             id="path1080" />
        </g>
        <g
           id="g1082"
           transform="translate(165.6304,273.9482)">
          <path
             d="m 0,0 c 34.869,-43.21 45.999,-103.52 11.135,-150.292 l -31.151,23.316 -7.229,25.277 c 4.511,1.597 8.91,2.505 13.251,2.807 8.787,0.616 16.118,4.497 21.562,11.42 5.446,6.924 7.492,14.961 6.017,23.646 -3.145,18.533 -11.537,38.101 -28.416,56.434 -5.836,6.338 -14.897,4.625 -27.01,-4.24 C -29.439,0.873 -7.98,10.302 0,0"
             style="fill:#d4c6c0;fill-opacity:1;fill-rule:evenodd;stroke:none"
             id="path1084" />
        </g>
        <g
           id="g1086"
           transform="translate(121.8184,169.5605)">
          <path
             d="m 0,0 c 9.667,6.874 29.518,1.975 44.339,-10.943 14.82,-12.915 18.996,-28.96 9.328,-35.833 C 44.001,-53.65 24.15,-48.752 9.329,-35.837 -5.491,-22.918 -9.667,-6.877 0,0"
             style="fill:#b2a29e;fill-opacity:1;fill-rule:evenodd;stroke:none"
             id="path1088" />
        </g>
      </g>
    </g>
  </g>
</svg>
